<svg width="14.504242" height="14.296997" viewBox="0 0 14.5042 14.297" fill="none" xmlns="http://www.w3.org/2000/svg" xmlns:xlink="http://www.w3.org/1999/xlink">
	<desc>
			Created with Pixso.
	</desc>
	<defs/>
	<path id="Vector" d="M13.1015 4.31519L10.6723 4.31519C10.0584 4.31519 9.51614 3.91528 9.33482 3.32874L8.61067 0.98645C8.20403 -0.328857 6.34224 -0.328857 5.93559 0.98645L5.21144 3.32874C5.03012 3.91528 4.48782 4.31519 3.8739 4.31519L1.40274 4.31519C0.0645447 4.31519 -0.510956 6.01282 0.551346 6.82654L2.66783 8.448C3.13199 8.80359 3.32628 9.41016 3.15509 9.96924L2.38609 12.4807C1.98729 13.7832 3.4948 14.8304 4.57614 14.002L6.42174 12.5881C6.9241 12.2032 7.62216 12.2032 8.12453 12.5881L9.95383 13.9895C11.0367 14.8191 12.5457 13.7679 12.1427 12.4646L11.3631 9.94275C11.189 9.37976 11.3861 8.76807 11.8561 8.41272L13.9461 6.83179C15.0168 6.02185 14.444 4.31519 13.1015 4.31519Z" fill="#FFAD33" fill-opacity="1.000000" fill-rule="nonzero"/>
</svg>
